<svg xmlns="http://www.w3.org/2000/svg" xmlns:xlink="http://www.w3.org/1999/xlink" viewBox="0 0 557.3 362.23"><defs><style>.cls-1{fill:url(#linear-gradient);}.cls-2{fill:url(#linear-gradient-2);}.cls-3{fill:url(#linear-gradient-3);}.cls-4{fill:url(#linear-gradient-4);}.cls-5{fill:url(#linear-gradient-5);}.cls-6{fill:url(#linear-gradient-6);}.cls-7{fill:url(#linear-gradient-7);}.cls-8{fill:url(#linear-gradient-8);}.cls-9{fill:url(#linear-gradient-9);}.cls-10{fill:url(#linear-gradient-10);}.cls-11{fill:url(#linear-gradient-11);}.cls-12{fill:url(#linear-gradient-12);}.cls-13{fill:url(#linear-gradient-13);}.cls-14{fill:url(#linear-gradient-14);}.cls-15{fill:url(#linear-gradient-15);}.cls-16{fill:url(#linear-gradient-16);}.cls-17{fill:url(#linear-gradient-17);}.cls-18{fill:url(#linear-gradient-18);}.cls-19{fill:url(#linear-gradient-19);}.cls-20{fill:url(#linear-gradient-20);}.cls-21{fill:url(#linear-gradient-21);}</style><linearGradient id="linear-gradient" x1="187.91" y1="194.67" x2="369.71" y2="12.87" gradientUnits="userSpaceOnUse"><stop offset="0" stop-color="#d46dff"/><stop offset="1" stop-color="#00d8fc"/></linearGradient><linearGradient id="linear-gradient-2" x1="185.67" y1="271.67" x2="417.44" y2="39.9" xlink:href="#linear-gradient"/><linearGradient id="linear-gradient-3" x1="10.91" y1="349.95" x2="65.7" y2="295.16" xlink:href="#linear-gradient"/><linearGradient id="linear-gradient-4" x1="269.83" y1="355.17" x2="334.82" y2="290.18" xlink:href="#linear-gradient"/><linearGradient id="linear-gradient-5" x1="153.86" y1="366.23" x2="214.55" y2="305.54" xlink:href="#linear-gradient"/><linearGradient id="linear-gradient-6" x1="87.78" y1="354.19" x2="127.94" y2="314.02" xlink:href="#linear-gradient"/><linearGradient id="linear-gradient-7" x1="459.32" y1="353.88" x2="498.87" y2="314.33" xlink:href="#linear-gradient"/><linearGradient id="linear-gradient-8" x1="353.06" y1="353.86" x2="393.24" y2="313.68" xlink:href="#linear-gradient"/><linearGradient id="linear-gradient-9" x1="514.14" y1="354.26" x2="554.26" y2="314.15" xlink:href="#linear-gradient"/><linearGradient id="linear-gradient-10" x1="410.34" y1="345.38" x2="446.5" y2="309.21" xlink:href="#linear-gradient"/><linearGradient id="linear-gradient-11" x1="306.06" y1="99.68" x2="340.98" y2="64.75" xlink:href="#linear-gradient"/><linearGradient id="linear-gradient-12" x1="233.25" y1="349.13" x2="263.73" y2="318.65" xlink:href="#linear-gradient"/><linearGradient id="linear-gradient-13" x1="136.02" y1="28.93" x2="169.52" y2="-4.56" xlink:href="#linear-gradient"/><linearGradient id="linear-gradient-14" x1="135.45" y1="125.09" x2="167.73" y2="92.82" xlink:href="#linear-gradient"/><linearGradient id="linear-gradient-15" x1="135.88" y1="155.38" x2="167.38" y2="123.88" xlink:href="#linear-gradient"/><linearGradient id="linear-gradient-16" x1="135.82" y1="91.84" x2="167.19" y2="60.47" xlink:href="#linear-gradient"/><linearGradient id="linear-gradient-17" x1="136.02" y1="60.16" x2="166.82" y2="29.35" xlink:href="#linear-gradient"/><linearGradient id="linear-gradient-18" x1="316.4" y1="134.08" x2="328.86" y2="121.62" xlink:href="#linear-gradient"/><linearGradient id="linear-gradient-19" x1="241.95" y1="298.33" x2="254.35" y2="285.93" xlink:href="#linear-gradient"/><linearGradient id="linear-gradient-20" x1="220.74" y1="64.9" x2="228.36" y2="57.28" xlink:href="#linear-gradient"/><linearGradient id="linear-gradient-21" x1="236.28" y1="64.7" x2="243.63" y2="57.35" xlink:href="#linear-gradient"/></defs><g id="Layer_2" data-name="Layer 2"><g id="Layer_1-2" data-name="Layer 1"><path class="cls-1" d="M196.4,42.14c1.09.08,1.86.18,2.64.19,2.79.06,5.59,0,8.38.15a3.64,3.64,0,0,0,2.9-1.37,56.74,56.74,0,0,1,5-4.83c9.74-7.85,23-7.66,33-.82a26.49,26.49,0,0,1,6.45,5.63,3.25,3.25,0,0,0,3,1.26c2.7-.15,5.41-.36,8.11-.32a26.54,26.54,0,0,1,8.69,1.4,18.53,18.53,0,0,1,11.11,10.88,20.77,20.77,0,0,1,1.51,8.18c0,15.6-.07,31.2,0,46.8,0,7-3,12.47-8.09,16.88a21.25,21.25,0,0,1-14.32,5.12c-19.18,0-38.36-.09-57.54,0-9.37.06-20.91-7.76-22-19.48-.12-1.35-.3-2.69-.3-4q0-40.08,0-80.15c0-5,.51-10,3.31-14.49C193.37,5,200.53.05,210.42,0Q277.32,0,344.21,0c9.47,0,17.24,3.5,23.22,10.84a25.3,25.3,0,0,1,6.17,16.21c0,6.72.19,13.43.2,20.14,0,4.39-.21,8.79-.2,13.18q.09,58.55.22,117.09c0,4.58-.47,9.08-2.44,13.29-4.61,9.88-12.22,15.71-23.12,17.05a30.68,30.68,0,0,1-3.58.2q-65.82,0-131.64,0c-10.27,0-23.17-6.92-27-19.36a31.55,31.55,0,0,1-1.14-7c-.19-2.95,0-5.92-.05-8.88q-.09-12.58-.2-25.18a21.34,21.34,0,0,1,.21-3.1,5.62,5.62,0,0,1,5.83-4.9,6,6,0,0,1,5.67,5.48c0,.55,0,1.12,0,1.68,0,11.2.1,22.4,0,33.59-.12,9.62,8.37,16,16,16q63-.09,125.89,0a92.14,92.14,0,0,0,9.55-.06c7.54-.79,14.6-8.12,14.58-15.87q-.09-62.16,0-124.31c0-9.34-.09-18.68,0-28s-9.25-16.95-16.87-16.93c-44,.11-88.08,0-132.12.09A31.33,31.33,0,0,0,207,12c-5.26,1.13-11.06,7.3-10.63,14.22.27,4.38.05,8.79.05,13.19Zm.5,12.1c-.17,5.58-.45,10.9-.48,16.23-.07,12.87,0,25.74,0,38.62a9.65,9.65,0,0,0,2.7,6.71c2.91,3.16,6.58,4.33,10.74,4.3l45.27-.34c3.33,0,6.66,0,10,0a10.6,10.6,0,0,0,10.45-10.55q0-24,0-48a7.32,7.32,0,0,0-7.42-7.38c-1.28,0-2.56-.06-3.83,0-1.08.07-2.15.3-3.2.45,0,5.86.07,11.44,0,17-.17,12.59-5.36,22.29-16.55,28.48a24.24,24.24,0,0,1-17.14,2.77c-11.59-2.5-19.09-9.71-22.41-21.18A38.08,38.08,0,0,1,203.7,71c0-5.42,0-10.83,0-16.41C201.63,53.79,199.36,54,196.9,54.24Zm52.69,19.14a6.16,6.16,0,0,0,.28-1.08c.09-4.63.21-9.26.23-13.89A14.08,14.08,0,0,0,247,49.55a19.67,19.67,0,0,0-9.57-6.85,15,15,0,0,0-11.62.63A20.23,20.23,0,0,0,217,51.9a11.59,11.59,0,0,0-1.65,4.92c-.24,5-.13,10-.14,15.06a1.31,1.31,0,0,0,1.47,1.48l1.44,0h31.43ZM219.87,84.1c.67,3.13,5.85,6.26,10.56,6.78,6.47.71,12.89-2.92,14.27-6.4C236.4,83.81,228.16,84.22,219.87,84.1Z"/><path class="cls-2" d="M399.53,68.32c5.38,0,10.31-.06,15.24,0,5.94.1,11.61,5.51,11.78,11.46.25,8.62.44,17.25.31,25.88-.11,6.84-4.26,11.47-10.4,13.38a10,10,0,0,1-2.84.31c-3.74,0-7.48,0-11.22,0h-2.71a35.74,35.74,0,0,0-.41,3.8q0,39,0,78c0,12-5.39,20.91-15.32,27.3a32.43,32.43,0,0,1-17.93,5q-43.27,0-86.56,0a35.7,35.7,0,0,0-5.47.43,4.06,4.06,0,0,0-2.24,1.19c-5.12,5.8-10.33,11.54-15.18,17.56-2.86,3.54-8.54,4.51-11.93.24-4.62-5.8-9.45-11.44-14.12-17.2a5.33,5.33,0,0,0-4.69-2.28c-6.06.22-12.12.38-18.19.36q-24.91-.08-49.83-.34c-4.5-.05-8.58-1.76-12.43-3.91a30.16,30.16,0,0,1-15.43-20.83c-.63-3-.4-6.17-.47-9.26-.1-4.08-.1-8.15-.15-12.22,0-1.68-.17-3.36-.08-5,.16-2.78.06-5.66.79-8.3A16.3,16.3,0,0,1,144.92,162c7.33-.33,14.67-.4,22-.51a17.73,17.73,0,0,1,4,.52,6.36,6.36,0,0,1,4.7,6c-.06,2.24-2.7,4.91-5.35,5-6.21.12-12.42,0-18.62.09a25.52,25.52,0,0,0-6.59.87,5.44,5.44,0,0,0-4,5.6c0,3.2,0,6.4,0,9.6,0,5.11-.3,10.27.18,15.34.64,6.76,4.22,11.89,10.23,15.21a19.48,19.48,0,0,0,9.65,2.33c23.1,0,46.19,0,69.29-.06a6.79,6.79,0,0,1,5.5,2.31c4.13,4.66,8.31,9.28,12.46,13.92.11.12.17.27.28.39,1.9,2.23,2.11,2.16,4.11-.12,3.9-4.43,8-8.72,11.79-13.23,2.07-2.44,4.64-3.16,7.61-3.23.63,0,1.27,0,1.91,0,30.86,0,61.71-.1,92.56.06,8.77,0,17.34-5.67,20.22-14.06a20.94,20.94,0,0,0,1.2-6.54q.09-84.82.07-169.66a13.12,13.12,0,0,0-2.84-8.19c-.62-.83-1.28-1.63-1.85-2.5a4.85,4.85,0,0,1-.1-5.41c1-1.87,2.71-2.3,4.67-2.16,3.22.22,5.48,2,7.26,4.5,2.94,4.12,4,8.85,4,13.8.07,11.12,0,22.24,0,33.36C399.28,66.08,399.42,67,399.53,68.32Z"/><path class="cls-3" d="M59.25,332c-1.8-.22-3.28-.53-4.76-.56-3.76-.07-7.51,0-11.27,0s-6.16-1.93-7.11-5.27c-1.17-4.1,2.22-9,6.48-9.1,7.67-.12,15.35-.14,23,0,3.69.07,5.73,2.79,7.41,5.72a10.42,10.42,0,0,1,1.1,5.56,32.79,32.79,0,0,1-6.25,19.23,33.68,33.68,0,0,1-21.76,13.64c-8.7,1.57-17.29.7-25.25-3.69-11-6.09-17.67-15.44-20-27.71a38.42,38.42,0,0,1,5.07-28.52,36.71,36.71,0,0,1,25.34-17.21c10.18-1.91,19.48.17,28.11,5.64a31,31,0,0,1,8.5,8.31,10.82,10.82,0,0,1,1.23,2.33,6.22,6.22,0,0,1-5.52,8.53,9.14,9.14,0,0,1-7.75-2.81,27.48,27.48,0,0,0-10-6.84,23.41,23.41,0,0,0-13.19-.47c-9.29,2-16.47,10.6-17.47,20.51-.84,8.44,1.33,16.13,8,21.84,7.82,6.72,18.92,8.61,27.83,2.25A20.62,20.62,0,0,0,59.25,332Z"/><path class="cls-4" d="M318.47,330.8c0-.82.12-1.65.12-2.48,0-10.71,0-21.43,0-32.15,0-1.76.08-3.52.18-5.27a7,7,0,0,1,7.2-6.76,7.21,7.21,0,0,1,7,7.3q0,26,0,52.08c0,3.51.19,7,.22,10.54a7.07,7.07,0,0,1-6.82,7.21c-2.13.07-4.16-.23-5.6-2-2.2-2.73-4.39-5.47-6.48-8.29-5.37-7.25-10.67-14.54-16-21.81-3.4-4.62-6.84-9.23-10.27-13.84-.36-.49-.79-.94-1.54-1.82-.06,1.3-.14,2.13-.14,3q0,18,0,36a10.15,10.15,0,0,1-1.58,5.66,6.52,6.52,0,0,1-6.82,3,6.69,6.69,0,0,1-5.74-4.46,9.31,9.31,0,0,1-.58-3.27c0-20.72,0-41.44-.06-62.15,0-2.6,1.73-6,4.54-7,3.09-1.15,6.09-.94,8.33,1.68,2.48,2.9,4.73,6,7,9.07,4.8,6.48,9.55,13,14.32,19.48l10.77,14.67c.45.61.9,1.22,1.34,1.84Z"/><path class="cls-5" d="M186.86,312.4a90.81,90.81,0,0,1,8.24-5.13c9.35-4.58,20.78-1.48,27.13,6.06a21.28,21.28,0,0,1,5.26,14.49c-.09,5.76,0,11.52,0,17.28,0,2.87.25,5.75.17,8.62-.11,4.19-2.13,6.59-6,7.48a6.56,6.56,0,0,1-8-4.91,28.8,28.8,0,0,1-.54-5.94c0-5.51.11-11,.14-16.54,0-1.83,0-3.68-.18-5.51a9.23,9.23,0,0,0-5.65-8.26c-3.71-1.54-7.36-.73-10.46,2a10.32,10.32,0,0,0-3.42,8.12c0,7.66,0,15.33,0,23a8.26,8.26,0,0,1-2.7,6.63A7.15,7.15,0,0,1,179.08,356a11.19,11.19,0,0,1-.3-2.84c0-7.2,0-14.4,0-21.6a17.17,17.17,0,0,0-1.35-7,9,9,0,0,0-9-5.58c-5.07.24-7.73,3.38-8.93,7.09a8.16,8.16,0,0,0-.18,2.38c0,7.84,0,15.68,0,23.52a18.15,18.15,0,0,1-.73,4.43,7,7,0,0,1-7.6,4.81,7.44,7.44,0,0,1-6.4-7.21c0-8.08,0-16.16,0-24.24V314.43a8.08,8.08,0,0,1,6.38-8.17,6.12,6.12,0,0,1,5,.94c1.58,1.19,3,.86,4.41.1a19.2,19.2,0,0,1,9.21-2.19,22,22,0,0,1,12.25,3.47C183.62,309.79,185.26,311.17,186.86,312.4Z"/><path class="cls-6" d="M94.37,338.58c2,4.42,4.85,7.26,9,8.6a17.69,17.69,0,0,0,16.37-2.4,9.55,9.55,0,0,1,1-.6c3.91-2.13,8.08-.44,9.55,3.78a5.32,5.32,0,0,1-.92,5.19,20.23,20.23,0,0,1-3.92,4.13,26,26,0,0,1-15.21,4.93,31.83,31.83,0,0,1-14.67-2.67,27.19,27.19,0,0,1-15.16-18.08,28,28,0,0,1,36.74-34.35c7.55,2.81,13.23,7.79,15.7,15.61,1.47,4.68,1.46,9.49-2.34,13.45a7.54,7.54,0,0,1-5.76,2.43c-9.11,0-18.21,0-27.32,0Zm.87-11.32c6.2.51,22.33.27,23.91-.35-1.86-4.62-7.12-7.44-13.12-7.14C101.79,320,96.29,323,95.24,327.26Z"/><path class="cls-7" d="M465.47,338.92a25.49,25.49,0,0,0,1.85,3.27c5.16,6.41,15.06,8.13,21.6,3.71,1.25-.85,2.57-1.6,3.89-2.35a4.41,4.41,0,0,1,4.95.24c2.91,1.91,5.13,6.09,2.06,10.16a14.61,14.61,0,0,1-4.19,3.84,30,30,0,0,1-20.44,3.93,27.88,27.88,0,0,1-19.05-11.6,27.25,27.25,0,0,1-5-14,28.25,28.25,0,0,1,.79-10.67,27.06,27.06,0,0,1,12-15.84,25.65,25.65,0,0,1,14.79-4c11.2.55,19.92,5.35,24.76,15.88a14.24,14.24,0,0,1-.28,13.36,7.54,7.54,0,0,1-7.28,4.09c-9,0-18.06,0-27.09,0Zm25.12-11.67c-2.41-5.7-7.54-8.09-12.72-7.95-4.77.12-10.43,4-11.53,7.95Z"/><path class="cls-8" d="M373.13,305.54c13.78-.1,28.08,9.93,28,28.55-.1,16.39-12.75,28-28.19,27.9a28,28,0,0,1-28.13-28.55C345,318.63,357.14,305.25,373.13,305.54ZM359,333.46a14.12,14.12,0,1,0,14.24-14C365.72,319.32,358.61,326.14,359,333.46Z"/><path class="cls-9" d="M534.75,362.16c-5-.17-9.86-.9-14.38-3.15a15.08,15.08,0,0,1-6.23-5.09,7,7,0,0,1,3-10.46,4.21,4.21,0,0,1,3.47-.14c1.52.68,3.1,1.28,4.54,2.1a19.46,19.46,0,0,0,12.14,2.82,11.11,11.11,0,0,0,3.4-.95,2.92,2.92,0,0,0,2-3,3.25,3.25,0,0,0-2.57-2.84c-2.3-.61-4.66-1-7-1.5-4.29-.87-8.65-1.41-12.66-3.33a14.47,14.47,0,0,1-8.27-16.18c1.37-7.61,6.53-11.67,13.49-13.63a30,30,0,0,1,21.18,1.69,24.78,24.78,0,0,1,5.51,3.71,6.23,6.23,0,0,1,1.34,7.24,6.34,6.34,0,0,1-7,3.37,13.88,13.88,0,0,1-4.2-1.6,15.76,15.76,0,0,0-11-2.26,9.28,9.28,0,0,0-3.14,1c-2.42,1.39-2.44,4.39.12,5.47a38.76,38.76,0,0,0,7.35,1.93c4.75,1,9.49,1.9,13.86,4.25a13.8,13.8,0,0,1,7.68,12.62,15.24,15.24,0,0,1-6.15,12.91,22.2,22.2,0,0,1-11,4.34C538.37,361.74,536.56,362,534.75,362.16Z"/><path class="cls-10" d="M416.63,306.9v-7c0-1.12,0-2.24,0-3.35.21-4.1,2.93-6.84,6.78-6.89,4.32-.06,7.14,2.44,7.39,6.71.15,2.47,0,5,0,7.44v2.55c1.58.94,3.13.49,4.61.54a10.62,10.62,0,0,1,6.06,1.88,6.12,6.12,0,0,1,2.53,6.7c-1,3.23-3.15,5.2-6,5.33-1.59.07-3.19,0-4.79,0-2.18,0-2.37.21-2.38,2.3,0,6.4,0,12.8,0,19.19,0,3.39,1.61,4.9,5,4.93.71,0,1.43,0,2.15,0a6.32,6.32,0,0,1,5.84,3.52c1.27,2.18,1,4.38-.37,6.55a8.53,8.53,0,0,1-7.17,4.11c-6.2.43-11.74-1.22-15.95-6a16.27,16.27,0,0,1-3.73-10.64c-.16-6.8,0-13.59,0-20.39,0-.16,0-.32,0-.48.15-3,.14-2.93-3-3.13a14.86,14.86,0,0,1-4.84-1.08,5.94,5.94,0,0,1-2.87-8.1,7.63,7.63,0,0,1,7.18-4.68Z"/><path class="cls-11" d="M315.71,102.37a40.16,40.16,0,0,1,0-5c.47-3.75,2.73-6.19,6.19-7.52,2.46-.94,5-1.66,7-3.49,2.48-2.28,4.27-5,3.69-8.57a8.58,8.58,0,0,0-6.34-7.37c-3.89-1.13-8.1.17-9.91,4.08-.3.65-.61,1.29-1,1.92a5.46,5.46,0,0,1-6.27,2.76,6.12,6.12,0,0,1-4.94-5.41A10.87,10.87,0,0,1,306.92,66c5.4-7,12.57-9.94,21.25-8.53C340,59.39,347.55,70.79,345.33,82.6c-1.53,8.17-6.15,13.88-13.39,17.54a3.71,3.71,0,0,0-2.39,4,14.06,14.06,0,0,1-.5,4.48,6.81,6.81,0,0,1-7.37,4.77,7.36,7.36,0,0,1-6-6.28c-.07-1.59,0-3.19,0-4.79Z"/><path class="cls-12" d="M255.82,333.74v19.68c0,2.91-1,5.33-3.6,6.84-3.55,2-10,1.18-10.79-5.33,0-.16,0-.32,0-.48-.11-3.59-.33-7.18-.31-10.77q.08-15.21.33-30.44a7,7,0,0,1,6.91-6.85,7.4,7.4,0,0,1,7.45,7c.1,4.95,0,9.91,0,14.87Z"/><path class="cls-13" d="M162.68,11.46c-3.49.19-7,.29-10.49.6-4.32.38-7.29,3-9.51,6.46a13.93,13.93,0,0,0-1.3,4.05c-.67,2.67-4.69,4.91-7.8,3.39-2.51-1.23-3.48-3.22-3.14-6.37.74-7,4.93-11.74,10.57-15.41a26.93,26.93,0,0,1,14.78-4c5.1-.06,10.21,0,15.32,0,2.26,0,4.27.61,5.55,2.67a5.44,5.44,0,0,1-3.94,8.47c-3.32.38-6.68.36-10,.51Z"/><path class="cls-14" d="M153.86,97.74c4.94,0,9.88,0,14.82,0a14.73,14.73,0,0,1,3.31.37,5.89,5.89,0,0,1,4.25,5.2,5.81,5.81,0,0,1-3.93,5.69,16.74,16.74,0,0,1-4.24.51c-6.37.06-12.75-.12-19.11.1a8.15,8.15,0,0,0-7.73,7.68,6.36,6.36,0,0,1-5.66,5.25,5.74,5.74,0,0,1-6-5c-.64-6.12,2-10.83,6.52-14.65a19.76,19.76,0,0,1,13.42-4.82c1.44,0,2.87,0,4.31,0Z"/><path class="cls-15" d="M158.86,140.85c-3.67,0-7.35-.12-11,0a7.51,7.51,0,0,0-7.3,6.94,4.25,4.25,0,0,1-2.9,4,5.57,5.57,0,0,1-5.9-.61c-2.58-2.05-3-4.87-2.32-7.82,1.51-6.81,6.15-10.75,12.41-13.1a20.51,20.51,0,0,1,7.28-1.1c6.79,0,13.59,0,20.38,0a6.74,6.74,0,0,1,5.63,2.53c2.42,2.91.59,7.51-2.45,8.54a12.61,12.61,0,0,1-3.51.61c-1.75.08-3.51,0-5.27-.07s-3.35,0-5,0Z"/><path class="cls-16" d="M159.34,77.22c-3.2,0-6.39,0-9.59,0a9.28,9.28,0,0,0-7.28,3A5.64,5.64,0,0,0,141,83.7c-.22,3.49-2.37,5.47-5.7,5.4a5.72,5.72,0,0,1-5.6-5.7c-.33-7.27,3.57-12,9.43-15.41a18.73,18.73,0,0,1,9.65-2.32q7.8,0,15.59,0c2,0,4,0,5.94.11a5.9,5.9,0,0,1,5.33,4.16,5.58,5.58,0,0,1-3.08,6.37,10.36,10.36,0,0,1-3.9.87C165.58,77.3,162.46,77.22,159.34,77.22Z"/><path class="cls-17" d="M158.49,34.3c3.59,0,7.18,0,10.78,0a6,6,0,0,1,5.93,4.92,5.73,5.73,0,0,1-5.39,6.58c-.55,0-1.11,0-1.67,0-5.83,0-11.66,0-17.49,0-3.23,0-6.12.88-8.32,3.44a5.05,5.05,0,0,0-1.3,3c-.28,3.22-2.3,4.83-5.52,5S130,54.44,129.74,52a13.18,13.18,0,0,1,2.1-8.42,18.48,18.48,0,0,1,13-8.83,30.18,30.18,0,0,1,4.74-.45C152.57,34.26,155.53,34.3,158.49,34.3Z"/><path class="cls-18" d="M322.83,119.06c4.24-.47,8.63,4,8.62,8.72a9.1,9.1,0,0,1-8.88,8.84c-4,0-8.43-2.75-8.53-8.73A8.72,8.72,0,0,1,322.83,119.06Z"/><path class="cls-19" d="M256.85,292c.32,3.69-3,8.78-9,8.95-4.06.12-8.22-3.49-8.23-8.58,0-5.43,3.65-8.61,8.85-8.68A8.14,8.14,0,0,1,256.85,292Z"/><path class="cls-20" d="M224.59,55.84A5.37,5.37,0,0,1,230.06,61a5.48,5.48,0,1,1-11,.17A5.2,5.2,0,0,1,224.59,55.84Z"/><path class="cls-21" d="M239.89,55.84a5.24,5.24,0,0,1,.17,10.48A5.33,5.33,0,0,1,234.8,61,4.93,4.93,0,0,1,239.89,55.84Z"/></g></g></svg>